<svg width="1125" height="2436" viewBox="0 0 1125 2436" fill="none" xmlns="http://www.w3.org/2000/svg">
<path fill-rule="evenodd" clip-rule="evenodd" d="M1125 0H0V2470H1125V0ZM792.003 1319.96C793.297 1320.21 794.923 1320.33 796.882 1320.33H834.443L803.544 1294.31C801.061 1292.28 798.805 1290.64 796.777 1289.38C794.748 1288.12 792.772 1287.11 790.849 1286.34C798.893 1283.12 805.905 1278.97 811.885 1273.9C817.901 1268.8 822.885 1263.03 826.837 1256.59C830.824 1250.12 833.797 1243.13 835.755 1235.61C837.749 1228.09 838.745 1220.29 838.745 1212.21C838.745 1204.79 837.976 1197.64 836.437 1190.75C834.933 1183.86 832.607 1177.41 829.46 1171.39C826.347 1165.38 822.395 1159.89 817.604 1154.92C812.812 1149.96 807.129 1145.71 800.554 1142.17C794.014 1138.64 786.564 1135.9 778.206 1133.94C769.847 1131.98 760.526 1131 750.244 1131C740.242 1131 731.113 1132 722.86 1133.99C714.606 1135.98 707.191 1138.78 700.616 1142.38C694.076 1145.95 688.358 1150.24 683.462 1155.24C678.6 1160.24 674.543 1165.75 671.291 1171.76C668.073 1177.78 665.66 1184.21 664.051 1191.07C662.477 1197.89 661.69 1204.93 661.69 1212.21C661.69 1219.62 662.442 1226.78 663.946 1233.67C665.485 1240.56 667.811 1247.03 670.923 1253.08C674.071 1259.09 678.041 1264.58 682.832 1269.55C687.623 1274.48 693.289 1278.73 699.829 1282.3C706.404 1285.83 713.871 1288.57 722.23 1290.53C730.624 1292.49 739.962 1293.47 750.244 1293.47C751.328 1293.47 752.395 1293.42 753.444 1293.31C754.528 1293.24 755.613 1293.21 756.697 1293.21L782.665 1314.72C783.854 1315.7 784.886 1316.54 785.76 1317.24C786.669 1317.94 787.614 1318.51 788.593 1318.97C789.607 1319.42 790.744 1319.75 792.003 1319.96ZM767.346 1264.2C762.275 1265.49 756.574 1266.14 750.244 1266.14C743.914 1266.14 738.196 1265.49 733.089 1264.2C728.018 1262.87 723.524 1261.02 719.607 1258.64C715.69 1256.26 712.332 1253.43 709.535 1250.14C706.737 1246.82 704.428 1243.16 702.61 1239.17C700.826 1235.19 699.497 1230.92 698.623 1226.37C697.783 1221.79 697.364 1217.07 697.364 1212.21C697.364 1207.35 697.783 1202.64 698.623 1198.1C699.497 1193.52 700.826 1189.23 702.61 1185.24C704.428 1181.26 706.737 1177.62 709.535 1174.33C712.332 1171.01 715.69 1168.16 719.607 1165.78C723.524 1163.4 728.018 1161.57 733.089 1160.27C738.196 1158.94 743.914 1158.28 750.244 1158.28C756.574 1158.28 762.275 1158.94 767.346 1160.27C772.417 1161.57 776.912 1163.4 780.829 1165.78C784.746 1168.16 788.103 1171.01 790.901 1174.33C793.734 1177.62 796.042 1181.26 797.826 1185.24C799.645 1189.23 800.974 1193.52 801.813 1198.1C802.652 1202.64 803.072 1207.35 803.072 1212.21C803.072 1217.07 802.652 1221.79 801.813 1226.37C800.974 1230.92 799.645 1235.19 797.826 1239.17C796.042 1243.16 793.734 1246.82 790.901 1250.14C788.103 1253.43 784.746 1256.26 780.829 1258.64C776.912 1261.02 772.417 1262.87 767.346 1264.2ZM894.039 1290.01L974.356 1159.8H876.622V1134.41H1012.86V1157.02L930.342 1290.01H894.039ZM221.528 1134.89L113.077 1338.95H331.998L440.449 1134.89H221.528ZM491.718 1256.7C495.146 1257.89 499.115 1259.09 503.627 1260.32C508.138 1261.54 512.982 1262.66 518.158 1263.67C523.334 1264.65 528.703 1265.46 534.264 1266.09C539.86 1266.72 545.455 1267.03 551.051 1267.03C558.99 1267.03 565.898 1266.58 571.773 1265.67C577.649 1264.72 582.51 1263.38 586.357 1261.63C590.239 1259.88 593.125 1257.75 595.013 1255.23C596.937 1252.71 597.899 1249.84 597.899 1246.62C597.899 1244.94 597.549 1243.41 596.849 1242.01C596.185 1240.61 595.118 1239.31 593.649 1238.12C592.18 1236.9 590.309 1235.76 588.036 1234.71C585.763 1233.67 583.035 1232.65 579.852 1231.67C576.67 1230.69 573.015 1229.73 568.888 1228.79C564.796 1227.81 560.197 1226.79 555.091 1225.74C548.236 1224.38 541.906 1222.86 536.1 1221.18C530.329 1219.47 525.118 1217.54 520.467 1215.41C515.85 1213.28 511.776 1210.93 508.243 1208.38C504.746 1205.79 501.808 1202.96 499.43 1199.88C497.087 1196.8 495.32 1193.46 494.131 1189.86C492.942 1186.22 492.348 1182.29 492.348 1178.06C492.348 1173.55 492.96 1169.26 494.184 1165.2C495.443 1161.11 497.366 1157.32 499.954 1153.82C502.578 1150.32 505.9 1147.18 509.922 1144.38C513.979 1141.58 518.805 1139.18 524.401 1137.19C529.997 1135.2 536.415 1133.68 543.654 1132.63C550.894 1131.54 559.008 1131 567.996 1131C574.081 1131 579.835 1131.26 585.256 1131.79C590.677 1132.28 595.748 1132.96 600.469 1133.83C605.191 1134.71 609.527 1135.74 613.479 1136.93C617.432 1138.08 620.964 1139.32 624.077 1140.65V1167.09C620.544 1165.97 616.662 1164.85 612.43 1163.74C608.233 1162.58 603.757 1161.57 599 1160.69C594.279 1159.78 589.313 1159.05 584.102 1158.49C578.89 1157.93 573.522 1157.65 567.996 1157.65C561.001 1157.65 554.968 1158.09 549.897 1158.96C544.826 1159.8 540.629 1161.04 537.307 1162.69C534.019 1164.3 531.571 1166.27 529.962 1168.61C528.388 1170.96 527.601 1173.6 527.601 1176.54C527.601 1178.21 527.951 1179.75 528.651 1181.15C529.385 1182.55 530.504 1183.86 532.008 1185.09C533.547 1186.28 535.47 1187.4 537.779 1188.44C540.122 1189.49 542.902 1190.51 546.12 1191.49C549.338 1192.47 553.01 1193.45 557.137 1194.43C561.264 1195.37 565.898 1196.37 571.039 1197.42C577.929 1198.78 584.259 1200.28 590.03 1201.93C595.8 1203.57 600.994 1205.42 605.61 1207.49C610.262 1209.55 614.336 1211.84 617.834 1214.36C621.366 1216.88 624.304 1219.69 626.647 1222.81C629.025 1225.88 630.809 1229.29 631.998 1233.04C633.187 1236.74 633.782 1240.84 633.782 1245.31C633.782 1249.89 633.047 1254.27 631.578 1258.43C630.145 1262.59 627.959 1266.45 625.021 1270.02C622.083 1273.59 618.376 1276.82 613.899 1279.73C609.458 1282.59 604.229 1285.06 598.213 1287.12C592.198 1289.15 585.378 1290.71 577.754 1291.79C570.164 1292.91 561.753 1293.47 552.52 1293.47C546.085 1293.47 539.895 1293.17 533.949 1292.58C528.003 1292.02 522.425 1291.27 517.214 1290.32C512.038 1289.38 507.281 1288.31 502.945 1287.12C498.643 1285.9 494.901 1284.64 491.718 1283.35V1256.7Z" fill="black"/>
</svg>
