<svg width="2880" height="1620" viewBox="0 0 2880 1620" fill="none" xmlns="http://www.w3.org/2000/svg">
<path fill-rule="evenodd" clip-rule="evenodd" d="M2880 0H0V1620H2880V0ZM1733.13 958.256C1734.93 958.596 1737.19 958.766 1739.91 958.766H1792.09L1749.16 922.62C1745.72 919.802 1742.58 917.518 1739.76 915.769C1736.95 914.02 1734.2 912.612 1731.53 911.543C1742.7 907.073 1752.44 901.316 1760.75 894.271C1769.11 887.178 1776.03 879.161 1781.52 870.222C1787.06 861.234 1791.19 851.517 1793.91 841.072C1796.68 830.626 1798.06 819.792 1798.06 808.569C1798.06 798.269 1797 788.334 1794.86 778.763C1792.77 769.192 1789.54 760.228 1785.17 751.871C1780.84 743.515 1775.35 735.887 1768.7 728.988C1762.04 722.089 1754.14 716.186 1745.01 711.279C1735.93 706.372 1725.58 702.559 1713.97 699.838C1702.35 697.117 1689.41 695.757 1675.12 695.757C1661.23 695.757 1648.55 697.142 1637.08 699.911C1625.62 702.68 1615.32 706.567 1606.18 711.571C1597.1 716.527 1589.15 722.478 1582.35 729.426C1575.6 736.373 1569.96 744.025 1565.44 752.382C1560.97 760.738 1557.62 769.677 1555.39 779.2C1553.2 788.674 1552.11 798.463 1552.11 808.569C1552.11 818.869 1553.15 828.804 1555.24 838.375C1557.38 847.946 1560.61 856.934 1564.93 865.339C1569.31 873.696 1574.82 881.323 1581.48 888.222C1588.13 895.073 1596 900.976 1605.09 905.931C1614.22 910.838 1624.6 914.652 1636.21 917.373C1647.87 920.093 1660.84 921.454 1675.12 921.454C1676.63 921.454 1678.11 921.381 1679.57 921.235C1681.07 921.138 1682.58 921.089 1684.09 921.089L1720.16 950.969C1721.81 952.329 1723.25 953.495 1724.46 954.467C1725.72 955.438 1727.03 956.24 1728.4 956.872C1729.8 957.503 1731.38 957.965 1733.13 958.256ZM1698.88 880.789C1691.84 882.587 1683.92 883.485 1675.12 883.485C1666.33 883.485 1658.39 882.587 1651.29 880.789C1644.25 878.943 1638 876.368 1632.56 873.064C1627.12 869.76 1622.46 865.825 1618.57 861.258C1614.68 856.643 1611.48 851.566 1608.95 846.027C1606.47 840.489 1604.63 834.561 1603.41 828.245C1602.25 821.881 1601.66 815.322 1601.66 808.569C1601.66 801.816 1602.25 795.281 1603.41 788.965C1604.63 782.601 1606.47 776.649 1608.95 771.111C1611.48 765.572 1614.68 760.519 1618.57 755.952C1622.46 751.337 1627.12 747.377 1632.56 744.074C1638 740.77 1644.25 738.219 1651.29 736.422C1658.39 734.576 1666.33 733.652 1675.12 733.652C1683.92 733.652 1691.84 734.576 1698.88 736.422C1705.93 738.219 1712.17 740.77 1717.61 744.074C1723.05 747.377 1727.71 751.337 1731.6 755.952C1735.54 760.519 1738.74 765.572 1741.22 771.111C1743.75 776.649 1745.59 782.601 1746.76 788.965C1747.93 795.281 1748.51 801.816 1748.51 808.569C1748.51 815.322 1747.93 821.881 1746.76 828.245C1745.59 834.561 1743.75 840.489 1741.22 846.027C1738.74 851.566 1735.54 856.643 1731.6 861.258C1727.71 865.825 1723.05 869.76 1717.61 873.064C1712.17 876.368 1705.93 878.943 1698.88 880.789ZM1874.88 916.644L1986.45 735.766H1850.68V700.494H2039.94V731.903L1925.31 916.644H1874.88ZM940.655 701.164L790 984.634H1094.11L1244.77 701.164H940.655ZM1315.99 870.368C1320.75 872.02 1326.27 873.696 1332.53 875.396C1338.8 877.097 1345.53 878.651 1352.72 880.06C1359.91 881.421 1367.37 882.538 1375.09 883.413C1382.87 884.287 1390.64 884.724 1398.41 884.724C1409.44 884.724 1419.04 884.093 1427.2 882.83C1435.36 881.518 1442.11 879.647 1447.46 877.218C1452.85 874.789 1456.86 871.825 1459.48 868.327C1462.15 864.829 1463.49 860.845 1463.49 856.376C1463.49 854.044 1463.01 851.906 1462.03 849.962C1461.11 848.019 1459.63 846.221 1457.59 844.57C1455.55 842.869 1452.95 841.29 1449.79 839.833C1446.63 838.375 1442.84 836.966 1438.42 835.606C1434 834.246 1428.92 832.909 1423.19 831.598C1417.51 830.237 1411.12 828.828 1404.02 827.371C1394.5 825.476 1385.71 823.363 1377.64 821.031C1369.63 818.65 1362.39 815.978 1355.93 813.014C1349.51 810.051 1343.85 806.796 1338.95 803.249C1334.09 799.654 1330.01 795.718 1326.7 791.443C1323.45 787.168 1320.99 782.528 1319.34 777.524C1317.69 772.471 1316.86 767.005 1316.86 761.127C1316.86 754.859 1317.71 748.908 1319.42 743.272C1321.16 737.588 1323.84 732.316 1327.43 727.458C1331.08 722.6 1335.69 718.227 1341.28 714.34C1346.91 710.454 1353.62 707.126 1361.39 704.356C1369.17 701.587 1378.08 699.474 1388.14 698.016C1398.19 696.51 1409.47 695.757 1421.95 695.757C1430.41 695.757 1438.4 696.121 1445.93 696.85C1453.46 697.53 1460.5 698.478 1467.06 699.692C1473.62 700.907 1479.65 702.34 1485.14 703.992C1490.63 705.595 1495.53 707.32 1499.86 709.166V745.896C1494.95 744.341 1489.56 742.786 1483.68 741.232C1477.85 739.628 1471.63 738.219 1465.02 737.005C1458.46 735.742 1451.56 734.721 1444.32 733.944C1437.09 733.167 1429.63 732.778 1421.95 732.778C1412.23 732.778 1403.85 733.385 1396.81 734.6C1389.76 735.766 1383.93 737.491 1379.32 739.774C1374.75 742.009 1371.35 744.754 1369.12 748.009C1366.93 751.264 1365.84 754.932 1365.84 759.013C1365.84 761.345 1366.32 763.483 1367.29 765.426C1368.31 767.37 1369.87 769.192 1371.96 770.892C1374.1 772.544 1376.77 774.099 1379.98 775.556C1383.23 777.014 1387.09 778.423 1391.56 779.783C1396.03 781.143 1401.13 782.504 1406.87 783.864C1412.6 785.176 1419.04 786.56 1426.18 788.018C1435.75 789.913 1444.54 792.002 1452.56 794.285C1460.58 796.569 1467.79 799.144 1474.2 802.01C1480.67 804.877 1486.33 808.059 1491.18 811.557C1496.09 815.055 1500.17 818.966 1503.43 823.29C1506.73 827.565 1509.21 832.302 1510.86 837.501C1512.51 842.651 1513.34 848.335 1513.34 854.554C1513.34 860.918 1512.32 866.991 1510.28 872.773C1508.29 878.554 1505.25 883.923 1501.17 888.878C1497.09 893.834 1491.94 898.328 1485.72 902.36C1479.55 906.344 1472.28 909.769 1463.93 912.636C1455.57 915.454 1446.1 917.616 1435.51 919.122C1424.96 920.676 1413.28 921.454 1400.45 921.454C1391.51 921.454 1382.91 921.041 1374.66 920.215C1366.4 919.438 1358.65 918.393 1351.41 917.081C1344.22 915.769 1337.61 914.288 1331.59 912.636C1325.61 910.935 1320.41 909.186 1315.99 907.389V870.368Z" fill="black"/>
</svg>
